<svg width="28" height="30" viewBox="0 0 28 30" fill="none" xmlns="http://www.w3.org/2000/svg">
<path d="M13.125 0C10.0308 0 7.06334 1.22916 4.87542 3.41709C2.6875 5.60501 1.45833 8.57247 1.45833 11.6667V14.4375C1.0184 14.8208 0.661943 15.2905 0.411077 15.8173C0.160211 16.3441 0.0202906 16.9169 0 17.5C0.033217 18.3456 0.321107 19.1615 0.825946 19.8407C1.33078 20.5198 2.02902 21.0307 2.82917 21.3062C4.725 25.8417 8.53125 29.1667 13.125 29.1667H17.5V26.25H13.125C9.82917 26.25 6.83958 23.7708 5.3375 19.8479L5.03125 19.0458L4.17083 18.9583C3.82043 18.9088 3.49999 18.7336 3.26924 18.4652C3.03849 18.1969 2.91318 17.8539 2.91667 17.5C2.9182 17.2455 2.98632 16.9958 3.11423 16.7758C3.24215 16.5558 3.42542 16.3731 3.64583 16.2458L4.375 15.8229V13.125C4.375 12.7382 4.52865 12.3673 4.80214 12.0938C5.07563 11.8203 5.44656 11.6667 5.83333 11.6667H20.4167C20.8034 11.6667 21.1744 11.8203 21.4479 12.0938C21.7214 12.3673 21.875 12.7382 21.875 13.125V20.4167H15.9104C15.778 20.0454 15.5478 19.7168 15.244 19.4656C14.9403 19.2145 14.5743 19.05 14.1848 18.9897C13.7953 18.9294 13.3967 18.9754 13.0312 19.1229C12.6657 19.2705 12.3469 19.514 12.1084 19.8278C11.8699 20.1416 11.7206 20.514 11.6764 20.9057C11.6321 21.2973 11.6944 21.6937 11.8569 22.0528C12.0193 22.4119 12.2757 22.7205 12.599 22.9459C12.9224 23.1713 13.3006 23.3052 13.6937 23.3333H24.7917C25.5652 23.3333 26.3071 23.026 26.8541 22.4791C27.401 21.9321 27.7083 21.1902 27.7083 20.4167V17.5C27.7083 16.7265 27.401 15.9846 26.8541 15.4376C26.3071 14.8906 25.5652 14.5833 24.7917 14.5833V11.6667C24.7917 8.57247 23.5625 5.60501 21.3746 3.41709C19.1867 1.22916 16.2192 0 13.125 0Z" fill="black"/>
</svg>
